<?xml version="1.0" encoding="UTF-8"?>
<!-- Mantenimiento: Asegurar IDs únicos por símbolo. Si se agrega un ícono que ya existe, usar sufijos como -alt, -2, etc. -->
<svg xmlns="http://www.w3.org/2000/svg" style="display:none">
  <symbol id="search" viewBox="0 0 24 24"><path d="M21 21l-4.35-4.35" stroke="currentColor" stroke-width="2" stroke-linecap="round" stroke-linejoin="round" fill="none"/><circle cx="11" cy="11" r="6" stroke="currentColor" stroke-width="2" fill="none"/></symbol>
  <symbol id="clear" viewBox="0 0 24 24"><path d="M6 6l12 12M18 6L6 18" stroke="currentColor" stroke-width="2" stroke-linecap="round" stroke-linejoin="round" fill="none"/></symbol>
  <symbol id="plus" viewBox="0 0 24 24"><path d="M12 5v14M5 12h14" stroke="currentColor" stroke-width="2" stroke-linecap="round" stroke-linejoin="round" fill="none"/></symbol>
  <symbol id="export" viewBox="0 0 24 24"><path d="M12 3v12M8 7l4-4 4 4M21 21H3" stroke="currentColor" stroke-width="2" stroke-linecap="round" stroke-linejoin="round" fill="none"/></symbol>
  <symbol id="refresh" viewBox="0 0 24 24"><path d="M20 12a8 8 0 1 0-2.3 5.5L20 21v-4.5" stroke="currentColor" stroke-width="2" stroke-linecap="round" stroke-linejoin="round" fill="none"/></symbol>
  <symbol id="prev" viewBox="0 0 24 24"><path d="M15 18l-6-6 6-6" stroke="currentColor" stroke-width="2" stroke-linecap="round" stroke-linejoin="round" fill="none"/></symbol>
  <symbol id="next" viewBox="0 0 24 24"><path d="M9 6l6 6-6 6" stroke="currentColor" stroke-width="2" stroke-linecap="round" stroke-linejoin="round" fill="none"/></symbol>
  <symbol id="close" viewBox="0 0 24 24"><path d="M6 6l12 12M18 6L6 18" stroke="currentColor" stroke-width="2" stroke-linecap="round" stroke-linejoin="round" fill="none"/></symbol>
  <symbol id="save" viewBox="0 0 24 24"><path d="M19 21H5a2 2 0 0 1-2-2V7a2 2 0 0 1 2-2h11l5 5v9a2 2 0 0 1-2 2zM17 21V13H7v8" stroke="currentColor" stroke-width="1.5" stroke-linecap="round" stroke-linejoin="round" fill="none"/></symbol>
  <symbol id="edit" viewBox="0 0 24 24"><path d="M3 21v-3l11-11 3 3L6 21H3zM20.7 7.3l-3-3 1.6-1.6a2 2 0 0 1 2.8 2.8L20.7 7.3z" stroke="currentColor" stroke-width="1.5" stroke-linecap="round" stroke-linejoin="round" fill="none"/></symbol>
  <symbol id="delete" viewBox="0 0 24 24"><path d="M3 6h18M8 6v14a2 2 0 0 0 2 2h4a2 2 0 0 0 2-2V6M10 11v6M14 11v6" stroke="currentColor" stroke-width="1.5" stroke-linecap="round" stroke-linejoin="round" fill="none"/></symbol>
  <symbol id="print" viewBox="0 0 24 24"><path d="M6 9V3h12v6M6 14H4v7h16v-7h-2" stroke="currentColor" stroke-width="1.5" stroke-linecap="round" stroke-linejoin="round" fill="none"/></symbol>
  <symbol id="download" viewBox="0 0 24 24"><path d="M12 3v12M8 11l4 4 4-4M21 21H3" stroke="currentColor" stroke-width="1.5" stroke-linecap="round" stroke-linejoin="round" fill="none"/></symbol>
  <symbol id="csv" viewBox="0 0 24 24"><path d="M12 3v12M8 11l4 4 4-4M3 21h18" stroke="currentColor" stroke-width="1.5" stroke-linecap="round" stroke-linejoin="round" fill="none"/></symbol>
  <symbol id="xls" viewBox="0 0 24 24"><path d="M4 7h16M4 7v14h16V7M9 11l6 6M15 11l-6 6" stroke="currentColor" stroke-width="1.5" stroke-linecap="round" stroke-linejoin="round" fill="none"/></symbol>
  <symbol id="menu" viewBox="0 0 24 24"><path d="M4 6h16M4 12h16M4 18h16" stroke="currentColor" stroke-width="2" stroke-linecap="round" stroke-linejoin="round" fill="none"/></symbol>
  <symbol id="logout" viewBox="0 0 24 24"><path d="M16 17l5-5-5-5M21 12H9M13 19H5V5h8" stroke="currentColor" stroke-width="1.5" stroke-linecap="round" stroke-linejoin="round" fill="none"/></symbol>
  <symbol id="report" viewBox="0 0 24 24"><path d="M21 15V6a2 2 0 0 0-2-2H7l-4 4v9a2 2 0 0 0 2 2h12a2 2 0 0 0 2-2z" stroke="currentColor" stroke-width="1.5" stroke-linecap="round" stroke-linejoin="round" fill="none"/></symbol>
  <symbol id="copy" viewBox="0 0 24 24"><path d="M16 12V8a2 2 0 0 0-2-2H8a2 2 0 0 0-2 2v8a2 2 0 0 0 2 2h6a2 2 0 0 0 2-2v-4zM20 8v10" stroke="currentColor" stroke-width="1.5" stroke-linecap="round" stroke-linejoin="round" fill="none"/></symbol>
  <symbol id="cancel" viewBox="0 0 24 24"><path d="M6 6l12 12M18 6L6 18" stroke="currentColor" stroke-width="1.5" stroke-linecap="round" stroke-linejoin="round" fill="none"/></symbol>
  <symbol id="confirm" viewBox="0 0 24 24"><path d="M20 6L9 17l-5-5" stroke="currentColor" stroke-width="1.5" stroke-linecap="round" stroke-linejoin="round" fill="none"/></symbol>
  <symbol id="send" viewBox="0 0 24 24"><path d="M22 2L11 13" stroke="currentColor" stroke-width="1.5" stroke-linecap="round" stroke-linejoin="round" fill="none"/><path d="M22 2l-7 20  -4-9  -9-4z" stroke="currentColor" stroke-width="1.5" stroke-linecap="round" stroke-linejoin="round" fill="none"/></symbol>
  <symbol id="info" viewBox="0 0 24 24"><circle cx="12" cy="12" r="10" stroke="currentColor" stroke-width="1.5" fill="none"/><path d="M12 8v8M12 6h.01" stroke="currentColor" stroke-width="1.5" stroke-linecap="round" stroke-linejoin="round" fill="none"/></symbol>
  <symbol id="eye-open" viewBox="0 0 24 24"><path d="M1 12s4-8 11-8 11 8 11 8-4 8-11 8-11-8-11-8z" stroke="currentColor" stroke-width="1.5" stroke-linecap="round" stroke-linejoin="round" fill="none"/><circle cx="12" cy="12" r="3" stroke="currentColor" stroke-width="1.5" fill="none"/></symbol>
  <symbol id="eye-closed" viewBox="0 0 24 24"><path d="M17.94 17.94A10.07 10.07 0 0 1 12 20c-7 0-11-8-11-8a18.45 18.45 0 0 1 5.06-5.94L17.94 17.94zM9.9 4.24A9.12 9.12 0 0 1 12 4c7 0 11 8 11 8a18.5 18.5 0 0 1-2.16 3.19L9.9 4.24z" stroke="currentColor" stroke-width="1.5" stroke-linecap="round" stroke-linejoin="round" fill="none"/><path d="M1 1l22 22" stroke="currentColor" stroke-width="1.5" stroke-linecap="round" stroke-linejoin="round" fill="none"/></symbol>
  <symbol id="key" viewBox="0 0 24 24"><circle cx="8" cy="8" r="6" stroke="currentColor" stroke-width="1.5" fill="none"/><path d="M16 16L22 22M18 10l4 4" stroke="currentColor" stroke-width="1.5" stroke-linecap="round" stroke-linejoin="round" fill="none"/></symbol>
  <symbol id="megaphone" viewBox="0 0 24 24"><path d="M3 11v3a1 1 0 0 0 1 1h1l2 2v-8l-2 2H4a1 1 0 0 0-1 1zM13 8.5a4.5 4.5 0 0 1 0 7M16 6a8 8 0 0 1 0 12" stroke="currentColor" stroke-width="1.5" stroke-linecap="round" stroke-linejoin="round" fill="none"/></symbol>
  <symbol id="home" viewBox="0 0 24 24"><path d="M3 9l9-7 9 7v11a2 2 0 0 1-2 2H5a2 2 0 0 1-2-2z" stroke="currentColor" stroke-width="1.5" stroke-linecap="round" stroke-linejoin="round" fill="none"/><polyline points="9,22 9,12 15,12 15,22" stroke="currentColor" stroke-width="1.5" stroke-linecap="round" stroke-linejoin="round" fill="none"/></symbol>
  <symbol id="ticket" viewBox="0 0 24 24"><path d="M14.5 2H9.5L7 7H2v10h5l2.5 5h5L17 17h5V7h-5L14.5 2z" stroke="currentColor" stroke-width="1.5" stroke-linecap="round" stroke-linejoin="round" fill="none"/></symbol>
  <symbol id="money" viewBox="0 0 24 24"><circle cx="12" cy="12" r="10" stroke="currentColor" stroke-width="1.5" fill="none"/><path d="M12 6v6l4 2" stroke="currentColor" stroke-width="1.5" stroke-linecap="round" stroke-linejoin="round" fill="none"/></symbol>
  <symbol id="tools" viewBox="0 0 24 24"><path d="M14.7 6.3a1 1 0 0 0 0 1.4l1.6 1.6a1 1 0 0 0 1.4 0l3.77-3.77a6 6 0 0 1-7.94 7.94l-6.91 6.91a2.12 2.12 0 0 1-3-3l6.91-6.91a6 6 0 0 1 7.94-7.94l-3.76 3.76z" stroke="currentColor" stroke-width="1.5" stroke-linecap="round" stroke-linejoin="round" fill="none"/></symbol>
  <symbol id="users" viewBox="0 0 24 24"><path d="M16 21v-2a4 4 0 0 0-4-4H6a4 4 0 0 0-4 4v2" stroke="currentColor" stroke-width="1.5" stroke-linecap="round" stroke-linejoin="round" fill="none"/><circle cx="9" cy="7" r="4" stroke="currentColor" stroke-width="1.5" fill="none"/><path d="M22 21v-2a4 4 0 0 0-3-3.87M16 3.13a4 4 0 0 1 0 7.75" stroke="currentColor" stroke-width="1.5" stroke-linecap="round" stroke-linejoin="round" fill="none"/></symbol>
  <symbol id="folder" viewBox="0 0 24 24"><path d="M22 19a2 2 0 0 1-2 2H4a2 2 0 0 1-2-2V5a2 2 0 0 1 2-2h5l2 3h9a2 2 0 0 1 2 2z" stroke="currentColor" stroke-width="1.5" stroke-linecap="round" stroke-linejoin="round" fill="none"/></symbol>
  <symbol id="user" viewBox="0 0 24 24"><path d="M20 21v-2a4 4 0 0 0-4-4H8a4 4 0 0 0-4 4v2" stroke="currentColor" stroke-width="1.5" stroke-linecap="round" stroke-linejoin="round" fill="none"/><circle cx="12" cy="7" r="4" stroke="currentColor" stroke-width="1.5" fill="none"/></symbol>
  <symbol id="clock" viewBox="0 0 24 24"><circle cx="12" cy="12" r="10" stroke="currentColor" stroke-width="1.5" fill="none"/><polyline points="12,6 12,12 16,14" stroke="currentColor" stroke-width="1.5" stroke-linecap="round" stroke-linejoin="round" fill="none"/></symbol>
  <symbol id="shield" viewBox="0 0 24 24"><path d="M12 22s8-4 8-10V5l-8-3-8 3v7c0 6 8 10 8 10z" stroke="currentColor" stroke-width="1.5" stroke-linecap="round" stroke-linejoin="round" fill="none"/></symbol>
  <symbol id="chart" viewBox="0 0 24 24"><polyline points="22,12 18,12 15,21 9,3 6,12 2,12" stroke="currentColor" stroke-width="1.5" stroke-linecap="round" stroke-linejoin="round" fill="none"/></symbol>
  <symbol id="file" viewBox="0 0 24 24"><path d="M14 2H6a2 2 0 0 0-2 2v16a2 2 0 0 0 2 2h12a2 2 0 0 0 2-2V8z" stroke="currentColor" stroke-width="1.5" stroke-linecap="round" stroke-linejoin="round" fill="none"/><polyline points="14,2 14,8 20,8" stroke="currentColor" stroke-width="1.5" stroke-linecap="round" stroke-linejoin="round" fill="none"/></symbol>
  <symbol id="upload" viewBox="0 0 24 24"><path d="M21 15v4a2 2 0 0 1-2 2H5a2 2 0 0 1-2-2v-4" stroke="currentColor" stroke-width="1.5" stroke-linecap="round" stroke-linejoin="round" fill="none"/><polyline points="17,8 12,3 7,8" stroke="currentColor" stroke-width="1.5" stroke-linecap="round" stroke-linejoin="round" fill="none"/><line x1="12" y1="3" x2="12" y2="15" stroke="currentColor" stroke-width="1.5" stroke-linecap="round" stroke-linejoin="round" fill="none"/></symbol>
  <symbol id="arrow-left" viewBox="0 0 24 24"><path d="M19 12H5" stroke="currentColor" stroke-width="2" stroke-linecap="round" stroke-linejoin="round" fill="none"/><polyline points="12,19 5,12 12,5" stroke="currentColor" stroke-width="2" stroke-linecap="round" stroke-linejoin="round" fill="none"/></symbol>
  <symbol id="arrow-right" viewBox="0 0 24 24"><path d="M5 12h14" stroke="currentColor" stroke-width="2" stroke-linecap="round" stroke-linejoin="round" fill="none"/><polyline points="12,5 19,12 12,19" stroke="currentColor" stroke-width="2" stroke-linecap="round" stroke-linejoin="round" fill="none"/></symbol>
  <symbol id="warning" viewBox="0 0 24 24"><path d="M12 9v4" stroke="currentColor" stroke-width="2" stroke-linecap="round" stroke-linejoin="round" fill="none"/><path d="M12 17h.01" stroke="currentColor" stroke-width="2" stroke-linecap="round" stroke-linejoin="round" fill="none"/><path d="M10.29 3.86L1.82 18a2 2 0 0 0 1.71 3h16.94a2 2 0 0 0 1.71-3L13.71 3.86a2 2 0 0 0-3.42 0z" stroke="currentColor" stroke-width="2" stroke-linecap="round" stroke-linejoin="round" fill="none"/></symbol>
  <symbol id="check" viewBox="0 0 24 24"><path d="M20 6L9 17l-5-5" stroke="currentColor" stroke-width="2" stroke-linecap="round" stroke-linejoin="round" fill="none"/></symbol>
  <symbol id="x" viewBox="0 0 24 24"><path d="M18 6L6 18" stroke="currentColor" stroke-width="2" stroke-linecap="round" stroke-linejoin="round" fill="none"/><path d="M6 6l12 12" stroke="currentColor" stroke-width="2" stroke-linecap="round" stroke-linejoin="round" fill="none"/></symbol>
  <symbol id="chat" viewBox="0 0 24 24"><path d="M21 15a2 2 0 0 1-2 2H7l-4 4V5a2 2 0 0 1 2-2h14a2 2 0 0 1 2 2z" stroke="currentColor" stroke-width="2" stroke-linecap="round" stroke-linejoin="round" fill="none"/></symbol>
  <symbol id="megaphone-alt" viewBox="0 0 24 24"><path d="M3 11v3a1 1 0 0 0 1 1h1l2 2v-8l-2 2H4a1 1 0 0 0-1 1zM13 8.5a4.5 4.5 0 0 1 0 7M16 6a8 8 0 0 1 0 12" stroke="currentColor" stroke-width="2" stroke-linecap="round" stroke-linejoin="round" fill="none"/></symbol>
  <symbol id="document" viewBox="0 0 24 24"><path d="M14 2H6a2 2 0 0 0-2 2v16a2 2 0 0 0 2 2h12a2 2 0 0 0 2-2V8z" stroke="currentColor" stroke-width="2" stroke-linecap="round" stroke-linejoin="round" fill="none"/><polyline points="14,2 14,8 20,8" stroke="currentColor" stroke-width="2" stroke-linecap="round" stroke-linejoin="round" fill="none"/><line x1="16" y1="13" x2="8" y2="13" stroke="currentColor" stroke-width="2" stroke-linecap="round" stroke-linejoin="round" fill="none"/><line x1="16" y1="17" x2="8" y2="17" stroke="currentColor" stroke-width="2" stroke-linecap="round" stroke-linejoin="round" fill="none"/><polyline points="10,9 9,9 8,9" stroke="currentColor" stroke-width="2" stroke-linecap="round" stroke-linejoin="round" fill="none"/></symbol>
  <symbol id="dollar" viewBox="0 0 24 24"><line x1="12" y1="1" x2="12" y2="23" stroke="currentColor" stroke-width="2" stroke-linecap="round" stroke-linejoin="round" fill="none"/><path d="M17 5H9.5a3.5 3.5 0 0 0 0 7h5a3.5 3.5 0 0 1 0 7H6" stroke="currentColor" stroke-width="2" stroke-linecap="round" stroke-linejoin="round" fill="none"/></symbol>
  <symbol id="bolt" viewBox="0 0 24 24"><polygon points="13 2 3 14 12 14 11 22 21 10 12 10 13 2" stroke="currentColor" stroke-width="2" stroke-linecap="round" stroke-linejoin="round" fill="none"/></symbol>
  <symbol id="login" viewBox="0 0 24 24"><path d="M16 3h5v18h-5M10 17l5-5-5-5M21 12H3" stroke="currentColor" stroke-width="2" stroke-linecap="round" stroke-linejoin="round" fill="none"/></symbol>
  <symbol id="lock" viewBox="0 0 24 24"><rect x="3" y="11" width="18" height="11" rx="2" ry="2" stroke="currentColor" stroke-width="2" fill="none"/><circle cx="12" cy="16" r="1" stroke="currentColor" stroke-width="2" fill="none"/><path d="M7 11V7a5 5 0 0 1 10 0v4" stroke="currentColor" stroke-width="2" stroke-linecap="round" stroke-linejoin="round" fill="none"/></symbol>
  <symbol id="copy-alt" viewBox="0 0 24 24"><rect x="9" y="9" width="13" height="13" rx="2" ry="2" stroke="currentColor" stroke-width="2" fill="none"/><path d="M5 15H4a2 2 0 0 1-2-2V4a2 2 0 0 1 2-2h9a2 2 0 0 1 2 2v1" stroke="currentColor" stroke-width="2" stroke-linecap="round" stroke-linejoin="round" fill="none"/></symbol>
  <symbol id="view" viewBox="0 0 24 24"><path d="M1 12s4-8 11-8 11 8 11 8-4 8-11 8-11-8-11-8z" stroke="currentColor" stroke-width="2" stroke-linecap="round" stroke-linejoin="round" fill="none"/><circle cx="12" cy="12" r="3" stroke="currentColor" stroke-width="2" fill="none"/></symbol>
</svg>
